<?xml version="1.0" encoding="utf-8"?>
<!-- Generator: Adobe Illustrator 23.0.2, SVG Export Plug-In . SVG Version: 6.00 Build 0)  -->
<svg version="1.1" id="Layer_1" xmlns="http://www.w3.org/2000/svg" xmlns:xlink="http://www.w3.org/1999/xlink" x="0px" y="0px"
	 viewBox="0 0 512 512" style="enable-background:new 0 0 512 512;" xml:space="preserve">
<style type="text/css">
	.st0{fill:#FE672D;}
	.st1{fill:#FAB03C;}
	.st2{fill:#FD8F3E;}
	.st3{fill:#F8E98E;}
	.st4{fill:#F6CB43;}
</style>
<g>
	<path class="st0" d="M321.4,230.7c0,67.9-55,122.9-122.9,122.9s-122.9-55-122.9-122.9s55-122.9,122.9-122.9
		S321.4,162.8,321.4,230.7z"/>
	<path class="st1" d="M429.9,262.4c-4.2-70-62.3-125.5-133.4-125.5c-57.3,0-106.2,36.1-125.2,86.8c-49.4,0.6-89.2,40.8-89.2,90.3
		c0,49.9,40.4,90.3,90.3,90.3h255c39.2,0,71-31.8,71-71C498.3,295,467.9,263.7,429.9,262.4z"/>
	<path class="st2" d="M498.3,333.3c0,39.2-31.8,71-71,71h-5.5c5.1-9.8,8.1-21,8.1-32.9c0-38.4-30.4-69.6-68.5-70.9
		c-4.2-70-62.3-125.5-133.4-125.5c-9.6,0-18.9,1-27.9,2.9c24.3-25.3,58.5-41,96.3-41c71.1,0,129.2,55.5,133.4,125.5
		C467.9,263.7,498.3,295,498.3,333.3z"/>
	<path class="st1" d="M394.5,254.6c-3.4,0-6.6-2.3-7.4-5.8c-1.2-5.1-2.9-10.2-5-15.1c-1.7-3.9,0.1-8.3,4-10c3.9-1.7,8.3,0.1,10,4
		c2.4,5.7,4.4,11.6,5.9,17.6c1,4.1-1.5,8.2-5.6,9.2C395.7,254.5,395.1,254.6,394.5,254.6z"/>
	<path class="st1" d="M369.2,208.5c-2,0-4-0.8-5.5-2.3c-17.8-18.5-41.7-28.7-67.3-28.7c-4.2,0-7.6-3.4-7.6-7.6s3.4-7.6,7.6-7.6
		c29.8,0,57.6,11.9,78.3,33.4c2.9,3,2.8,7.9-0.2,10.8C373,207.8,371.1,208.5,369.2,208.5z"/>
	<path class="st3" d="M62.6,302.9c3-50,44.6-89.7,95.4-89.7c41,0,75.9,25.8,89.5,62c35.3,0.4,63.8,29.1,63.8,64.5
		c0,35.7-28.9,64.6-64.6,64.6c-14.9,0-167,0-182.3,0c-28,0-50.7-22.7-50.7-50.7C13.7,326.1,35.4,303.8,62.6,302.9z"/>
	<path class="st4" d="M311.3,339.7c0,35.3-28.4,64.1-63.7,64.5c10.6-11.5,17-26.8,17-43.7c0-35.4-28.5-64.1-63.8-64.5
		c-13.6-36.2-48.5-62-89.5-62c-4.8,0-9.6,0.4-14.2,1.1c16.5-13.7,37.8-21.9,60.9-21.9c41,0,75.9,25.8,89.5,62
		C282.8,275.6,311.3,304.3,311.3,339.7z"/>
</g>
</svg>
